# xmcd
#
# Track frame offsets: 
#        150
#        16480
#        37275
#        67367
#        88600
#        109922
#        136697
#        159345
#        185387
#        203905
#        221347
#        241445
#        264997
#
# Disc length: 3983 seconds
#
# Revision: 0
# Processed by: cddbd v1.4PL0 Copyright (c) Steve Scherf et al.
# Submitted via: ExactAudioCopy v0.95a4
#
DISCID=ba0f8d0d
DTITLE=Louisiana Red - Blues For Ida B
DYEAR=1982
DGENRE=Blues
TTITLE0=Blues For Ida B ('45' Edition)
TTITLE1=Grease Me
TTITLE2=I Wonder Why
TTITLE3=Love Me True
TTITLE4=Nothing But A Gypsy Man
TTITLE5=Chicken Licken
TTITLE6=Little Boy
TTITLE7=Sittin' Here Lookin'
TTITLE8=Love Me Mama
TTITLE9=This Little Letter
TTITLE10=If I Had A Dollar
TTITLE11=Nothing But The Blues
TTITLE12=Blues For Ida B
EXTD=
EXTT0=
EXTT1=
EXTT2=
EXTT3=
EXTT4=
EXTT5=
EXTT6=
EXTT7=
EXTT8=
EXTT9=
EXTT10=
EXTT11=
EXTT12=
PLAYORDER=
